<svg width="50" height="50" version="1.1" viewBox="0 0 13.23 13.23" xmlns="http://www.w3.org/2000/svg">
 <g transform="translate(-6.56,-264.8)">
  <text x="11.284459" y="268.74289" fill="#000000" font-family="'Nimbus Roman No9 L'" font-size="4.233px" letter-spacing="0px" stroke-width=".2646" word-spacing="0px" style="line-height:1.25" xml:space="preserve"><tspan x="11.284459" y="272.51819" stroke-width=".2646"/></text>
  <path d="m13.249 265.09c-2.8871 0.85457-5.2978 1.8642-6.5809 2.3483 0 0.80871 2.9163 1.4641 6.5137 1.4641 3.5974 0 6.5137-0.65538 6.5137-1.4641-1.2831-0.52015-3.8038-1.4716-6.4465-2.3483zm-2.5271 3.8822v7.9359h4.8388v-7.9256s-0.74219 0.11055-2.4822 0.09975c-1.74-0.01167-2.3566-0.11008-2.3566-0.11008zm-0.21809 7.614c-1.6855 0.10179-2.9974 0.29842-2.9974 0.51886-2.86e-5 0.32674 2.497 0.59173 5.5773 0.59173 3.0803 0 5.5773-0.26499 5.5773-0.59173 0.011698-0.19496-0.89545-0.3693-2.2755-0.477-0.36228-0.0216-0.63049-0.03049-0.63049-0.03049s-6.33e-4 0.47985-5.17e-4 0.48785c0 0-5.1046-6e-3 -5.2145 0-0.05682 0.00316 0.019474-0.50222-0.036176-0.49922z" fill="#d3d3d3" stroke-linejoin="round" stroke-width=".59766"/>
 </g>
</svg>
